League Gothic.ufo
<glyph name="Dje-cy" format="1">
  <advance width="434"/>
  <unicode hex="0402"/>
  <outline>
    <contour>
      <point x="211" y="624" type="line"/>
      <point x="314" y="624" type="line"/>
      <point x="314" y="735" type="line"/>
      <point x="2" y="735" type="line"/>
      <point x="2" y="624" type="line"/>
      <point x="104" y="624" type="line"/>
      <point x="104" y="0" type="line"/>
      <point x="212" y="0" type="line"/>
      <point x="212" y="339" type="line"/>
      <point x="212" y="339"/>
      <point x="240" y="347"/>
      <point x="260" y="347" type="curve" smooth="yes"/>
      <point x="274" y="347"/>
      <point x="288" y="344"/>
      <point x="288" y="321" type="curve" smooth="yes"/>
      <point x="288" y="-35" type="line" smooth="yes"/>
      <point x="288" y="-101"/>
      <point x="230" y="-89"/>
      <point x="230" y="-89" type="curve"/>
      <point x="230" y="-195" type="line"/>
      <point x="358" y="-202"/>
      <point x="396" y="-131"/>
      <point x="396" y="-52" type="curve" smooth="yes"/>
      <point x="396" y="338" type="line" smooth="yes"/>
      <point x="396" y="387"/>
      <point x="372" y="453"/>
      <point x="315" y="453" type="curve" smooth="yes"/>
      <point x="277" y="453"/>
      <point x="220" y="439"/>
      <point x="211" y="435" type="curve"/>
    </contour>
  </outline>
</glyph>
<glyph name="E-cy" format="1">
  <advance width="343"/>
  <unicode hex="0404"/>
  <outline>
    <contour>
      <point x="32" y="743"/>
      <point x="33" y="584"/>
      <point x="33" y="584" type="curve"/>
      <point x="33" y="151" type="line"/>
      <point x="33" y="151"/>
      <point x="32" y="-8"/>
      <point x="177" y="-8" type="curve" smooth="yes"/>
      <point x="322" y="-8"/>
      <point x="321" y="151"/>
      <point x="321" y="151" type="curve"/>
      <point x="321" y="213" type="line"/>
      <point x="213" y="213" type="line"/>
      <point x="213" y="151" type="line"/>
      <point x="213" y="151"/>
      <point x="215" y="97"/>
      <point x="177" y="97" type="curve" smooth="yes"/>
      <point x="139" y="97"/>
      <point x="141" y="151"/>
      <point x="141" y="151" type="curve"/>
      <point x="141" y="316" type="line"/>
      <point x="231" y="316" type="line"/>
      <point x="231" y="434" type="line"/>
      <point x="141" y="434" type="line"/>
      <point x="141" y="584" type="line"/>
      <point x="141" y="584"/>
      <point x="139" y="638"/>
      <point x="177" y="638" type="curve" smooth="yes"/>
      <point x="215" y="638"/>
      <point x="213" y="584"/>
      <point x="213" y="584" type="curve"/>
      <point x="213" y="541" type="line"/>
      <point x="321" y="541" type="line"/>
      <point x="321" y="584" type="line"/>
      <point x="321" y="584"/>
      <point x="322" y="743"/>
      <point x="177" y="743" type="curve" smooth="yes"/>
    </contour>
  </outline>
</glyph>
<glyph name="Lje-cy" format="1">
  <advance width="583"/>
  <unicode hex="0409"/>
  <outline>
    <contour>
      <point x="375" y="440" type="line"/>
      <point x="375" y="735" type="line"/>
      <point x="105" y="735" type="line"/>
      <point x="105" y="307"/>
      <point x="105" y="109"/>
      <point x="38" y="109" type="curve" smooth="yes"/>
      <point x="23" y="109"/>
      <point x="6" y="111"/>
      <point x="6" y="111" type="curve"/>
      <point x="6" y="1" type="line"/>
      <point x="6" y="1"/>
      <point x="42" y="-2"/>
      <point x="57" y="-2" type="curve" smooth="yes"/>
      <point x="204" y="-2"/>
      <point x="202" y="229"/>
      <point x="202" y="624" type="curve"/>
      <point x="267" y="624" type="line"/>
      <point x="267" y="0" type="line"/>
      <point x="400" y="0" type="line"/>
      <point x="529" y="5"/>
      <point x="567" y="99"/>
      <point x="567" y="220" type="curve" smooth="yes"/>
      <point x="567" y="341"/>
      <point x="529" y="435"/>
      <point x="400" y="440" type="curve"/>
    </contour>
    <contour>
      <point x="375" y="333" type="line"/>
      <point x="395" y="333"/>
      <point x="455" y="341"/>
      <point x="455" y="220" type="curve" smooth="yes"/>
      <point x="455" y="99"/>
      <point x="395" y="107"/>
      <point x="375" y="107" type="curve"/>
    </contour>
  </outline>
</glyph>
<glyph name="Nje-cy" format="1">
  <advance width="548"/>
  <unicode hex="040A"/>
  <outline>
    <contour>
      <point x="340" y="440" type="line"/>
      <point x="340" y="735" type="line"/>
      <point x="232" y="735" type="line"/>
      <point x="232" y="440" type="line"/>
      <point x="148" y="440" type="line"/>
      <point x="148" y="735" type="line"/>
      <point x="40" y="735" type="line"/>
      <point x="40" y="730"/>
      <point x="40" y="0"/>
      <point x="40" y="0" type="curve"/>
      <point x="148" y="0" type="line"/>
      <point x="148" y="329" type="line"/>
      <point x="232" y="329" type="line"/>
      <point x="232" y="0" type="line"/>
      <point x="365" y="0" type="line"/>
      <point x="494" y="5"/>
      <point x="532" y="99"/>
      <point x="532" y="220" type="curve" smooth="yes"/>
      <point x="532" y="341"/>
      <point x="494" y="435"/>
      <point x="365" y="440" type="curve"/>
    </contour>
    <contour>
      <point x="340" y="333" type="line"/>
      <point x="360" y="333"/>
      <point x="420" y="341"/>
      <point x="420" y="220" type="curve" smooth="yes"/>
      <point x="420" y="99"/>
      <point x="360" y="107"/>
      <point x="340" y="107" type="curve"/>
    </contour>
  </outline>
</glyph>
<glyph name="Tshe-cy" format="1">
  <advance width="434"/>
  <unicode hex="040B"/>
  <outline>
    <contour>
      <point x="2" y="735" type="line"/>
      <point x="2" y="624" type="line"/>
      <point x="104" y="624" type="line"/>
      <point x="104" y="0" type="line"/>
      <point x="212" y="0" type="line"/>
      <point x="212" y="339" type="line"/>
      <point x="212" y="339"/>
      <point x="240" y="347"/>
      <point x="260" y="347" type="curve" smooth="yes"/>
      <point x="274" y="347"/>
      <point x="288" y="344"/>
      <point x="288" y="321" type="curve" smooth="yes"/>
      <point x="288" y="0" type="line"/>
      <point x="396" y="0" type="line"/>
      <point x="396" y="338" type="line" smooth="yes"/>
      <point x="396" y="387"/>
      <point x="372" y="453"/>
      <point x="315" y="453" type="curve" smooth="yes"/>
      <point x="277" y="453"/>
      <point x="220" y="439"/>
      <point x="211" y="435" type="curve"/>
      <point x="211" y="624" type="line"/>
      <point x="314" y="624" type="line"/>
      <point x="314" y="735" type="line"/>
    </contour>
  </outline>
</glyph>
<glyph name="Dzhe-cy" format="1">
  <advance width="380"/>
  <unicode hex="040F"/>
  <outline>
    <contour>
      <point x="232" y="735" type="line"/>
      <point x="232" y="111" type="line"/>
      <point x="148" y="111" type="line"/>
      <point x="148" y="735" type="line"/>
      <point x="40" y="735" type="line"/>
      <point x="40" y="730"/>
      <point x="40" y="0"/>
      <point x="40" y="0" type="curve"/>
      <point x="136" y="0" type="line"/>
      <point x="136" y="-185" type="line"/>
      <point x="244" y="-185" type="line"/>
      <point x="244" y="0" type="line"/>
      <point x="340" y="0" type="line"/>
      <point x="340" y="735" type="line"/>
    </contour>
  </outline>
</glyph>
<glyph name="Be-cy" format="1">
  <advance width="356"/>
  <unicode hex="0411"/>
  <outline>
    <contour>
      <point x="40" y="735" type="line"/>
      <point x="40" y="0" type="line"/>
      <point x="173" y="0" type="line"/>
      <point x="302" y="5"/>
      <point x="340" y="100"/>
      <point x="340" y="223" type="curve" smooth="yes"/>
      <point x="340" y="346"/>
      <point x="302" y="441"/>
      <point x="173" y="446" type="curve"/>
      <point x="148" y="446" type="line"/>
      <point x="148" y="624" type="line"/>
      <point x="297" y="624" type="line"/>
      <point x="297" y="735" type="line"/>
    </contour>
    <contour>
      <point x="168" y="339"/>
      <point x="228" y="346"/>
      <point x="228" y="223" type="curve" smooth="yes"/>
      <point x="228" y="100"/>
      <point x="168" y="108"/>
      <point x="148" y="108" type="curve"/>
      <point x="148" y="339" type="line"/>
    </contour>
  </outline>
</glyph>
<glyph name="Ge-cy" format="1">
  <advance width="299"/>
  <unicode hex="0413"/>
  <outline>
    <contour>
      <point x="40" y="0" type="line"/>
      <point x="148" y="0" type="line"/>
      <point x="148" y="624" type="line"/>
      <point x="297" y="624" type="line"/>
      <point x="297" y="735" type="line"/>
      <point x="40" y="735" type="line"/>
    </contour>
  </outline>
</glyph>
<glyph name="De-cy" format="1">
  <advance width="439"/>
  <unicode hex="0414"/>
  <outline>
    <contour>
      <point x="115" y="735" type="line"/>
      <point x="103" y="312"/>
      <point x="97" y="203"/>
      <point x="58" y="111" type="curve"/>
      <point x="6" y="111" type="line"/>
      <point x="6" y="-185" type="line"/>
      <point x="114" y="-185" type="line"/>
      <point x="116" y="0" type="line"/>
      <point x="325" y="0" type="line"/>
      <point x="325" y="-185" type="line"/>
      <point x="433" y="-185" type="line"/>
      <point x="433" y="111" type="line"/>
      <point x="373" y="111" type="line"/>
      <point x="373" y="735" type="line"/>
    </contour>
    <contour>
      <point x="265" y="111" type="line"/>
      <point x="168" y="111" type="line"/>
      <point x="192" y="203"/>
      <point x="200" y="314"/>
      <point x="212" y="624" type="curve"/>
      <point x="265" y="624" type="line"/>
    </contour>
  </outline>
</glyph>
<glyph name="Zhe-cy" format="1">
  <advance width="560"/>
  <unicode hex="0416"/>
  <outline>
    <contour>
      <point x="226" y="735" type="line"/>
      <point x="226" y="0" type="line"/>
      <point x="334" y="0" type="line"/>
      <point x="334" y="735" type="line"/>
    </contour>
    <contour>
      <point x="334" y="376" type="line"/>
      <point x="334" y="323" type="line"/>
      <point x="378" y="323"/>
      <point x="385" y="283"/>
      <point x="397" y="217" type="curve" smooth="yes"/>
      <point x="436" y="0" type="line"/>
      <point x="544" y="0" type="line"/>
      <point x="498" y="234" type="line" smooth="yes"/>
      <point x="487" y="288"/>
      <point x="482" y="346"/>
      <point x="423" y="381" type="curve"/>
    </contour>
    <contour>
      <point x="466" y="413"/>
      <point x="473" y="465"/>
      <point x="482" y="519" type="curve" smooth="yes"/>
      <point x="493" y="582"/>
      <point x="499" y="627"/>
      <point x="536" y="631" type="curve"/>
      <point x="536" y="739" type="line"/>
      <point x="426" y="745"/>
      <point x="410" y="680"/>
      <point x="390" y="536" type="curve" smooth="yes"/>
      <point x="381" y="470"/>
      <point x="370" y="430"/>
      <point x="334" y="430" type="curve"/>
      <point x="334" y="376" type="line"/>
      <point x="423" y="381" type="line"/>
    </contour>
    <contour>
      <point x="78" y="346"/>
      <point x="73" y="288"/>
      <point x="62" y="234" type="curve" smooth="yes"/>
      <point x="16" y="0" type="line"/>
      <point x="124" y="0" type="line"/>
      <point x="163" y="217" type="line" smooth="yes"/>
      <point x="175" y="283"/>
      <point x="182" y="323"/>
      <point x="226" y="323" type="curve"/>
      <point x="226" y="376" type="line"/>
      <point x="137" y="381" type="line"/>
    </contour>
    <contour>
      <point x="226" y="376" type="line"/>
      <point x="226" y="430" type="line"/>
      <point x="190" y="430"/>
      <point x="179" y="470"/>
      <point x="170" y="536" type="curve" smooth="yes"/>
      <point x="150" y="680"/>
      <point x="134" y="745"/>
      <point x="24" y="739" type="curve"/>
      <point x="24" y="631" type="line"/>
      <point x="61" y="628"/>
      <point x="67" y="582"/>
      <point x="78" y="519" type="curve" smooth="yes"/>
      <point x="87" y="465"/>
      <point x="94" y="413"/>
      <point x="137" y="381" type="curve"/>
    </contour>
  </outline>
</glyph>
<glyph name="Ze-cy" format="1">
  <advance width="340"/>
  <unicode hex="0417"/>
  <outline>
    <contour>
      <point x="27" y="743"/>
      <point x="22" y="606"/>
      <point x="22" y="541" type="curve"/>
      <point x="128" y="541" type="line"/>
      <point x="129" y="594"/>
      <point x="136" y="640"/>
      <point x="165" y="640" type="curve" smooth="yes"/>
      <point x="197" y="640"/>
      <point x="203" y="595"/>
      <point x="203" y="545" type="curve" smooth="yes"/>
      <point x="203" y="462"/>
      <point x="190" y="434"/>
      <point x="112" y="429" type="curve"/>
      <point x="112" y="335" type="line"/>
      <point x="121" y="335" type="line"/>
      <point x="188" y="332"/>
      <point x="204" y="299"/>
      <point x="204" y="208" type="curve" smooth="yes"/>
      <point x="204" y="138"/>
      <point x="203" y="95"/>
      <point x="169" y="95" type="curve" smooth="yes"/>
      <point x="133" y="95"/>
      <point x="130" y="128"/>
      <point x="129" y="212" type="curve"/>
      <point x="23" y="212" type="line"/>
      <point x="23" y="118"/>
      <point x="33" y="-8"/>
      <point x="169" y="-8" type="curve" smooth="yes"/>
      <point x="304" y="-8"/>
      <point x="316" y="137"/>
      <point x="316" y="201" type="curve" smooth="yes"/>
      <point x="316" y="284"/>
      <point x="300" y="348"/>
      <point x="242" y="388" type="curve"/>
      <point x="294" y="434"/>
      <point x="309" y="475"/>
      <point x="309" y="558" type="curve" smooth="yes"/>
      <point x="309" y="616"/>
      <point x="297" y="743"/>
      <point x="162" y="743" type="curve" smooth="yes"/>
    </contour>
  </outline>
</glyph>
<glyph name="Ii-cy" format="1">
  <advance width="395"/>
  <unicode hex="0418"/>
  <outline>
    <contour>
      <point x="355" y="735"/>
      <point x="355" y="0"/>
      <point x="355" y="0" type="curve"/>
      <point x="256" y="0" type="line"/>
      <point x="256" y="410" type="line"/>
      <point x="257" y="444" type="line"/>
      <point x="251" y="444" type="line"/>
      <point x="242" y="410" type="line"/>
      <point x="139" y="46" type="line"/>
      <point x="139" y="0" type="line"/>
      <point x="40" y="0" type="line"/>
      <point x="40" y="0"/>
      <point x="40" y="735"/>
      <point x="40" y="735" type="curve"/>
      <point x="139" y="735" type="line"/>
      <point x="139" y="335" type="line"/>
      <point x="138" y="301" type="line"/>
      <point x="144" y="301" type="line"/>
      <point x="153" y="335" type="line"/>
      <point x="256" y="699" type="line"/>
      <point x="256" y="735" type="line"/>
      <point x="355" y="735" type="line" smooth="yes"/>
    </contour>
  </outline>
</glyph>
<glyph name="Ka-cy" format="1">
  <advance width="380"/>
  <unicode hex="041A"/>
  <outline>
    <contour>
      <point x="40" y="735" type="line"/>
      <point x="40" y="0" type="line"/>
      <point x="148" y="0" type="line"/>
      <point x="148" y="735" type="line"/>
    </contour>
    <contour>
      <point x="148" y="376" type="line"/>
      <point x="148" y="323" type="line"/>
      <point x="192" y="323"/>
      <point x="199" y="283"/>
      <point x="211" y="217" type="curve" smooth="yes"/>
      <point x="250" y="0" type="line"/>
      <point x="358" y="0" type="line"/>
      <point x="312" y="234" type="line" smooth="yes"/>
      <point x="301" y="288"/>
      <point x="296" y="346"/>
      <point x="237" y="381" type="curve"/>
    </contour>
    <contour>
      <point x="280" y="413"/>
      <point x="287" y="465"/>
      <point x="296" y="519" type="curve" smooth="yes"/>
      <point x="307" y="582"/>
      <point x="313" y="627"/>
      <point x="350" y="631" type="curve"/>
      <point x="350" y="739" type="line"/>
      <point x="240" y="745"/>
      <point x="224" y="680"/>
      <point x="204" y="536" type="curve" smooth="yes"/>
      <point x="195" y="470"/>
      <point x="184" y="430"/>
      <point x="148" y="430" type="curve"/>
      <point x="148" y="376" type="line"/>
      <point x="237" y="381" type="line"/>
    </contour>
  </outline>
</glyph>
<glyph name="El-cy" format="1">
  <advance width="415"/>
  <unicode hex="041B"/>
  <outline>
    <contour>
      <point x="105" y="735" type="line"/>
      <point x="105" y="307"/>
      <point x="105" y="109"/>
      <point x="38" y="109" type="curve" smooth="yes"/>
      <point x="23" y="109"/>
      <point x="6" y="111"/>
      <point x="6" y="111" type="curve"/>
      <point x="6" y="1" type="line"/>
      <point x="6" y="1"/>
      <point x="42" y="-2"/>
      <point x="57" y="-2" type="curve" smooth="yes"/>
      <point x="204" y="-2"/>
      <point x="202" y="229"/>
      <point x="202" y="624" type="curve"/>
      <point x="267" y="624" type="line"/>
      <point x="267" y="0" type="line"/>
      <point x="375" y="0" type="line"/>
      <point x="375" y="735" type="line"/>
    </contour>
  </outline>
</glyph>
<glyph name="Pe-cy" format="1">
  <advance width="380"/>
  <unicode hex="041F"/>
  <outline>
    <contour>
      <point x="232" y="0" type="line"/>
      <point x="340" y="0" type="line"/>
      <point x="340" y="735" type="line"/>
      <point x="40" y="735" type="line"/>
      <point x="40" y="0" type="line"/>
      <point x="148" y="0" type="line"/>
      <point x="148" y="624" type="line"/>
      <point x="232" y="624" type="line"/>
    </contour>
  </outline>
</glyph>
<glyph name="U-cy" format="1">
  <advance width="342"/>
  <unicode hex="0423"/>
  <outline>
    <contour>
      <point x="22" y="-6" type="line"/>
      <point x="22" y="-6"/>
      <point x="58" y="-8"/>
      <point x="70" y="-8" type="curve" smooth="yes"/>
      <point x="169" y="-8"/>
      <point x="210" y="71"/>
      <point x="224" y="147" type="curve" smooth="yes"/>
      <point x="335" y="735" type="line"/>
      <point x="229" y="735" type="line"/>
      <point x="176" y="389" type="line"/>
      <point x="173" y="361" type="line"/>
      <point x="169" y="361" type="line"/>
      <point x="166" y="389" type="line"/>
      <point x="113" y="735" type="line"/>
      <point x="7" y="735" type="line"/>
      <point x="113" y="172" type="line"/>
      <point x="109" y="138"/>
      <point x="93" y="107"/>
      <point x="47" y="103" type="curve"/>
      <point x="30" y="103"/>
      <point x="22" y="105"/>
      <point x="22" y="105" type="curve"/>
    </contour>
  </outline>
</glyph>
<glyph name="Ef-cy" format="1">
  <advance width="516"/>
  <unicode hex="0424"/>
  <outline>
    <contour>
      <point x="204" y="745" type="line"/>
      <point x="204" y="673" type="line"/>
      <point x="29" y="673"/>
      <point x="30" y="514"/>
      <point x="30" y="514" type="curve"/>
      <point x="30" y="231" type="line"/>
      <point x="30" y="231"/>
      <point x="29" y="72"/>
      <point x="204" y="72" type="curve"/>
      <point x="204" y="-8" type="line"/>
      <point x="312" y="-8" type="line"/>
      <point x="312" y="72" type="line"/>
      <point x="487" y="72"/>
      <point x="486" y="231"/>
      <point x="486" y="231" type="curve"/>
      <point x="486" y="514" type="line"/>
      <point x="486" y="514"/>
      <point x="487" y="673"/>
      <point x="312" y="673" type="curve"/>
      <point x="312" y="745" type="line"/>
    </contour>
    <contour>
      <point x="204" y="177" type="line"/>
      <point x="136" y="177"/>
      <point x="138" y="231"/>
      <point x="138" y="231" type="curve"/>
      <point x="138" y="514" type="line"/>
      <point x="138" y="514"/>
      <point x="136" y="568"/>
      <point x="204" y="568" type="curve"/>
    </contour>
    <contour>
      <point x="380" y="568"/>
      <point x="378" y="514"/>
      <point x="378" y="514" type="curve"/>
      <point x="378" y="231" type="line"/>
      <point x="378" y="231"/>
      <point x="380" y="177"/>
      <point x="312" y="177" type="curve"/>
      <point x="312" y="568" type="line"/>
    </contour>
  </outline>
</glyph>
<glyph name="Tse-cy" format="1">
  <advance width="406"/>
  <unicode hex="0426"/>
  <outline>
    <contour>
      <point x="232" y="735" type="line"/>
      <point x="232" y="111" type="line"/>
      <point x="148" y="111" type="line"/>
      <point x="148" y="735" type="line"/>
      <point x="40" y="735" type="line"/>
      <point x="40" y="730"/>
      <point x="40" y="0"/>
      <point x="40" y="0" type="curve"/>
      <point x="292" y="0" type="line"/>
      <point x="292" y="-185" type="line"/>
      <point x="400" y="-185" type="line"/>
      <point x="400" y="111" type="line"/>
      <point x="340" y="111" type="line"/>
      <point x="340" y="735" type="line"/>
    </contour>
  </outline>
</glyph>
<glyph name="Che-cy" format="1">
  <advance width="370"/>
  <unicode hex="0427"/>
  <outline>
    <contour>
      <point x="222" y="396" type="line"/>
      <point x="222" y="396"/>
      <point x="194" y="388"/>
      <point x="174" y="388" type="curve" smooth="yes"/>
      <point x="160" y="388"/>
      <point x="146" y="391"/>
      <point x="146" y="414" type="curve" smooth="yes"/>
      <point x="146" y="735" type="line"/>
      <point x="38" y="735" type="line"/>
      <point x="38" y="397" type="line" smooth="yes"/>
      <point x="38" y="348"/>
      <point x="62" y="282"/>
      <point x="119" y="282" type="curve" smooth="yes"/>
      <point x="157" y="282"/>
      <point x="214" y="296"/>
      <point x="223" y="300" type="curve"/>
      <point x="222" y="0" type="line"/>
      <point x="330" y="0" type="line"/>
      <point x="330" y="735" type="line"/>
      <point x="222" y="735" type="line"/>
    </contour>
  </outline>
</glyph>
<glyph name="Shcha-cy" format="1">
  <advance width="578"/>
  <unicode hex="0429"/>
  <outline>
    <contour>
      <point x="404" y="735" type="line"/>
      <point x="404" y="111" type="line"/>
      <point x="330" y="111" type="line"/>
      <point x="330" y="735" type="line"/>
      <point x="222" y="735" type="line"/>
      <point x="222" y="111" type="line"/>
      <point x="148" y="111" type="line"/>
      <point x="148" y="735" type="line"/>
      <point x="40" y="735" type="line"/>
      <point x="40" y="0" type="line"/>
      <point x="464" y="0" type="line"/>
      <point x="464" y="-185" type="line"/>
      <point x="572" y="-185" type="line"/>
      <point x="572" y="111" type="line"/>
      <point x="512" y="111" type="line"/>
      <point x="512" y="735" type="line"/>
    </contour>
  </outline>
</glyph>
<glyph name="Hardsign-cy" format="1">
  <advance width="420"/>
  <unicode hex="042A"/>
  <outline>
    <contour>
      <point x="212" y="735" type="line"/>
      <point x="2" y="735" type="line"/>
      <point x="2" y="624" type="line"/>
      <point x="104" y="624" type="line"/>
      <point x="104" y="0" type="line"/>
      <point x="237" y="0" type="line"/>
      <point x="366" y="5"/>
      <point x="404" y="101"/>
      <point x="404" y="225" type="curve" smooth="yes"/>
      <point x="404" y="349"/>
      <point x="366" y="444"/>
      <point x="237" y="449" type="curve"/>
      <point x="212" y="449" type="line"/>
    </contour>
    <contour>
      <point x="232" y="342"/>
      <point x="292" y="349"/>
      <point x="292" y="225" type="curve" smooth="yes"/>
      <point x="292" y="101"/>
      <point x="232" y="107"/>
      <point x="212" y="107" type="curve"/>
      <point x="212" y="342" type="line"/>
    </contour>
  </outline>
</glyph>
<glyph name="Softsign-cy" format="1">
  <advance width="356"/>
  <unicode hex="042C"/>
  <outline>
    <contour>
      <point x="148" y="107" type="line"/>
    </contour>
    <contour>
      <point x="302" y="5"/>
      <point x="340" y="101"/>
      <point x="340" y="225" type="curve" smooth="yes"/>
      <point x="340" y="349"/>
      <point x="302" y="444"/>
      <point x="173" y="449" type="curve"/>
      <point x="148" y="449" type="line"/>
      <point x="148" y="735" type="line"/>
      <point x="40" y="735" type="line"/>
      <point x="40" y="0" type="line"/>
      <point x="173" y="0" type="line"/>
    </contour>
    <contour>
      <point x="168" y="342"/>
      <point x="228" y="349"/>
      <point x="228" y="225" type="curve" smooth="yes"/>
      <point x="228" y="101"/>
      <point x="168" y="107"/>
      <point x="148" y="107" type="curve"/>
      <point x="148" y="342" type="line"/>
    </contour>
  </outline>
</glyph>
<glyph name="Iu-cy" format="1">
  <advance width="553"/>
  <unicode hex="042E"/>
  <outline>
    <contour>
      <point x="40" y="735" type="line"/>
      <point x="40" y="730"/>
      <point x="40" y="0"/>
      <point x="40" y="0" type="curve"/>
      <point x="148" y="0" type="line"/>
      <point x="148" y="320" type="line"/>
      <point x="282" y="320" type="line"/>
      <point x="282" y="431" type="line"/>
      <point x="148" y="431" type="line"/>
      <point x="148" y="735" type="line"/>
    </contour>
    <component base="O" xOffset="199"/>
  </outline>
</glyph>
<glyph name="Ia-cy" format="1">
  <advance width="372"/>
  <unicode hex="042F"/>
  <outline>
    <contour>
      <point x="224" y="735" type="line" smooth="yes"/>
      <point x="96" y="735"/>
      <point x="40" y="661"/>
      <point x="40" y="523" type="curve" smooth="yes"/>
      <point x="40" y="441"/>
      <point x="62" y="390"/>
      <point x="121" y="355" type="curve"/>
      <point x="224" y="310" type="line"/>
      <point x="224" y="0" type="line"/>
      <point x="332" y="0" type="line"/>
      <point x="332" y="735" type="line"/>
    </contour>
    <contour>
      <point x="76" y="328"/>
      <point x="71" y="275"/>
      <point x="60" y="221" type="curve" smooth="yes"/>
      <point x="14" y="0" type="line"/>
      <point x="122" y="0" type="line"/>
      <point x="161" y="204" type="line" smooth="yes"/>
      <point x="174" y="270"/>
      <point x="180" y="310"/>
      <point x="224" y="310" type="curve"/>
      <point x="224" y="363" type="line"/>
      <point x="131" y="363" type="line"/>
    </contour>
    <contour>
      <point x="224" y="410" type="line"/>
      <point x="194" y="410"/>
      <point x="144" y="414"/>
      <point x="144" y="519" type="curve" smooth="yes"/>
      <point x="144" y="624"/>
      <point x="194" y="628"/>
      <point x="224" y="628" type="curve"/>
    </contour>
    <contour>
      <point x="223" y="735" type="line"/>
    </contour>
  </outline>
</glyph>
<glyph name="be-cy" format="1">
  <advance width="321"/>
  <unicode hex="0431"/>
  <outline>
    <contour>
      <point x="31" y="136" type="line"/>
      <point x="31" y="136"/>
      <point x="30" y="-8"/>
      <point x="160" y="-8" type="curve" smooth="yes"/>
      <point x="291" y="-8"/>
      <point x="290" y="133"/>
      <point x="290" y="133" type="curve"/>
      <point x="290" y="388" type="line"/>
      <point x="290" y="388"/>
      <point x="291" y="529"/>
      <point x="178" y="529" type="curve" smooth="yes"/>
      <point x="144" y="529"/>
      <point x="118" y="515"/>
      <point x="102" y="488" type="curve"/>
      <point x="102" y="540"/>
      <point x="119" y="585"/>
      <point x="156" y="606" type="curve" smooth="yes"/>
      <point x="193" y="627"/>
      <point x="238" y="629"/>
      <point x="274" y="643" type="curve"/>
      <point x="274" y="742" type="line"/>
      <point x="220" y="723"/>
      <point x="165" y="718"/>
      <point x="121" y="694" type="curve" smooth="yes"/>
      <point x="61" y="661"/>
      <point x="31" y="585"/>
      <point x="31" y="419" type="curve" smooth="yes"/>
    </contour>
    <contour>
      <point x="195" y="136" type="line"/>
      <point x="195" y="136"/>
      <point x="198" y="81"/>
      <point x="160" y="81" type="curve" smooth="yes"/>
      <point x="123" y="81"/>
      <point x="126" y="136"/>
      <point x="126" y="136" type="curve"/>
      <point x="126" y="385" type="line"/>
      <point x="126" y="385"/>
      <point x="123" y="441"/>
      <point x="160" y="441" type="curve" smooth="yes"/>
      <point x="198" y="441"/>
      <point x="195" y="385"/>
      <point x="195" y="385" type="curve"/>
    </contour>
  </outline>
</glyph>
<glyph name="ve-cy" format="1">
  <advance width="339"/>
  <unicode hex="0432"/>
  <outline>
    <contour>
      <point x="164" y="0" type="line"/>
      <point x="284" y="4"/>
      <point x="319" y="75"/>
      <point x="319" y="155" type="curve" smooth="yes"/>
      <point x="319" y="263"/>
      <point x="250" y="289"/>
      <point x="250" y="289" type="curve"/>
      <point x="298" y="322"/>
      <point x="312" y="351"/>
      <point x="312" y="402" type="curve" smooth="yes"/>
      <point x="312" y="510"/>
      <point x="249" y="547"/>
      <point x="128" y="547" type="curve" smooth="yes"/>
      <point x="90" y="547"/>
      <point x="40" y="547"/>
      <point x="40" y="547" type="curve"/>
      <point x="40" y="0" type="line"/>
    </contour>
    <contour>
      <point x="215" y="86"/>
      <point x="159" y="91"/>
      <point x="141" y="91" type="curve"/>
      <point x="141" y="243" type="line"/>
      <point x="159" y="243"/>
      <point x="215" y="248"/>
      <point x="215" y="167" type="curve" smooth="yes"/>
    </contour>
    <contour>
      <point x="215" y="325"/>
      <point x="159" y="327"/>
      <point x="141" y="327" type="curve"/>
      <point x="141" y="456" type="line"/>
      <point x="159" y="456"/>
      <point x="215" y="458"/>
      <point x="215" y="391" type="curve" smooth="yes"/>
    </contour>
  </outline>
</glyph>
<glyph name="ge-cy" format="1">
  <advance width="261"/>
  <unicode hex="0433"/>
  <outline>
    <contour>
      <point x="40" y="547" type="line"/>
      <point x="40" y="0" type="line"/>
      <point x="141" y="0" type="line"/>
      <point x="141" y="456" type="line"/>
      <point x="257" y="456" type="line"/>
      <point x="257" y="547" type="line"/>
    </contour>
  </outline>
</glyph>
<glyph name="de-cy" format="1">
  <advance width="394"/>
  <unicode hex="0434"/>
  <outline>
    <contour>
      <point x="98" y="547" type="line"/>
      <point x="89" y="234"/>
      <point x="79" y="155"/>
      <point x="52" y="91" type="curve"/>
      <point x="4" y="91" type="line"/>
      <point x="4" y="-138" type="line"/>
      <point x="105" y="-138" type="line"/>
      <point x="105" y="0" type="line"/>
      <point x="289" y="0" type="line"/>
      <point x="289" y="-138" type="line"/>
      <point x="390" y="-138" type="line"/>
      <point x="390" y="91" type="line"/>
      <point x="335" y="91" type="line"/>
      <point x="335" y="547" type="line"/>
    </contour>
    <contour>
      <point x="234" y="91" type="line"/>
      <point x="152" y="91" type="line"/>
      <point x="169" y="155"/>
      <point x="179" y="235"/>
      <point x="188" y="456" type="curve"/>
      <point x="234" y="456" type="line"/>
    </contour>
  </outline>
</glyph>
<glyph name="zhe-cy" format="1">
  <advance width="519"/>
  <unicode hex="0436"/>
  <outline>
    <contour>
      <point x="209" y="0" type="line"/>
      <point x="310" y="0" type="line"/>
      <point x="310" y="547" type="line"/>
      <point x="209" y="547" type="line"/>
    </contour>
    <contour>
      <point x="71" y="258"/>
      <point x="67" y="215"/>
      <point x="57" y="174" type="curve" smooth="yes"/>
      <point x="14" y="0" type="line"/>
      <point x="114" y="0" type="line"/>
      <point x="150" y="159" type="line" smooth="yes"/>
      <point x="161" y="208"/>
      <point x="168" y="236"/>
      <point x="209" y="236" type="curve"/>
      <point x="209" y="280" type="line"/>
      <point x="126" y="284" type="line"/>
    </contour>
    <contour>
      <point x="209" y="280" type="line"/>
      <point x="209" y="325" type="line"/>
      <point x="176" y="325"/>
      <point x="166" y="353"/>
      <point x="157" y="401" type="curve" smooth="yes"/>
      <point x="137" y="509"/>
      <point x="124" y="555"/>
      <point x="21" y="550" type="curve"/>
      <point x="21" y="461" type="line"/>
      <point x="56" y="458"/>
      <point x="61" y="426"/>
      <point x="71" y="387" type="curve" smooth="yes"/>
      <point x="81" y="346"/>
      <point x="86" y="308"/>
      <point x="126" y="284" type="curve"/>
    </contour>
    <contour>
      <point x="310" y="280" type="line"/>
      <point x="310" y="236" type="line"/>
      <point x="351" y="236"/>
      <point x="358" y="208"/>
      <point x="369" y="159" type="curve" smooth="yes"/>
      <point x="405" y="0" type="line"/>
      <point x="505" y="0" type="line"/>
      <point x="463" y="174" type="line" smooth="yes"/>
      <point x="452" y="215"/>
      <point x="448" y="258"/>
      <point x="393" y="284" type="curve"/>
    </contour>
    <contour>
      <point x="433" y="308"/>
      <point x="438" y="346"/>
      <point x="449" y="387" type="curve" smooth="yes"/>
      <point x="458" y="426"/>
      <point x="463" y="458"/>
      <point x="498" y="461" type="curve"/>
      <point x="498" y="550" type="line"/>
      <point x="395" y="555"/>
      <point x="382" y="509"/>
      <point x="363" y="401" type="curve" smooth="yes"/>
      <point x="353" y="353"/>
      <point x="343" y="325"/>
      <point x="310" y="325" type="curve"/>
      <point x="310" y="280" type="line"/>
      <point x="393" y="284" type="line"/>
    </contour>
  </outline>
</glyph>
<glyph name="ze-cy" format="1">
  <advance width="312"/>
  <unicode hex="0437"/>
  <outline>
    <contour>
      <point x="114" y="245" type="line"/>
      <point x="193" y="242"/>
      <point x="198" y="187"/>
      <point x="198" y="158" type="curve" smooth="yes"/>
      <point x="198" y="109"/>
      <point x="188" y="81"/>
      <point x="159" y="81" type="curve" smooth="yes"/>
      <point x="129" y="81"/>
      <point x="118" y="101"/>
      <point x="118" y="166" type="curve"/>
      <point x="24" y="166" type="line"/>
      <point x="24" y="97"/>
      <point x="32" y="-8"/>
      <point x="158" y="-8" type="curve" smooth="yes"/>
      <point x="282" y="-8"/>
      <point x="292" y="116"/>
      <point x="292" y="143" type="curve" smooth="yes"/>
      <point x="292" y="205"/>
      <point x="277" y="258"/>
      <point x="228" y="289" type="curve"/>
      <point x="275" y="324"/>
      <point x="285" y="354"/>
      <point x="285" y="419" type="curve" smooth="yes"/>
      <point x="285" y="462"/>
      <point x="276" y="555"/>
      <point x="152" y="555" type="curve" smooth="yes"/>
      <point x="35" y="555"/>
      <point x="24" y="452"/>
      <point x="24" y="396" type="curve"/>
      <point x="118" y="396" type="line"/>
      <point x="119" y="445"/>
      <point x="128" y="467"/>
      <point x="155" y="467" type="curve" smooth="yes"/>
      <point x="182" y="467"/>
      <point x="189" y="439"/>
      <point x="189" y="395" type="curve" smooth="yes"/>
      <point x="189" y="351"/>
      <point x="182" y="330"/>
      <point x="106" y="326" type="curve"/>
      <point x="106" y="245" type="line"/>
    </contour>
  </outline>
</glyph>
<glyph name="ii-cy" format="1">
  <advance width="379"/>
  <unicode hex="0438"/>
  <outline>
    <contour>
      <point x="246" y="304" type="line"/>
      <point x="246" y="0" type="line"/>
      <point x="339" y="0" type="line"/>
      <point x="339" y="547" type="line"/>
      <point x="246" y="547" type="line"/>
      <point x="246" y="521" type="line"/>
      <point x="149" y="257" type="line"/>
      <point x="135" y="216" type="line"/>
      <point x="131" y="216" type="line"/>
      <point x="133" y="258" type="line"/>
      <point x="133" y="547" type="line"/>
      <point x="40" y="547" type="line"/>
      <point x="40" y="0" type="line"/>
      <point x="133" y="0" type="line"/>
      <point x="133" y="42" type="line"/>
      <point x="230" y="305" type="line"/>
      <point x="244" y="346" type="line"/>
      <point x="248" y="346" type="line"/>
    </contour>
  </outline>
</glyph>
<glyph name="ka-cy" format="1">
  <advance width="350"/>
  <unicode hex="043A"/>
  <outline>
    <contour>
      <point x="40" y="547" type="line"/>
      <point x="40" y="0" type="line"/>
      <point x="141" y="0" type="line"/>
      <point x="141" y="547" type="line"/>
    </contour>
    <contour>
      <point x="141" y="280" type="line"/>
      <point x="141" y="236" type="line"/>
      <point x="182" y="236"/>
      <point x="189" y="208"/>
      <point x="200" y="159" type="curve" smooth="yes"/>
      <point x="236" y="0" type="line"/>
      <point x="336" y="0" type="line"/>
      <point x="293" y="174" type="line" smooth="yes"/>
      <point x="283" y="215"/>
      <point x="279" y="258"/>
      <point x="224" y="284" type="curve"/>
    </contour>
    <contour>
      <point x="264" y="308"/>
      <point x="269" y="346"/>
      <point x="279" y="387" type="curve" smooth="yes"/>
      <point x="289" y="426"/>
      <point x="294" y="458"/>
      <point x="329" y="461" type="curve"/>
      <point x="329" y="550" type="line"/>
      <point x="226" y="555"/>
      <point x="213" y="509"/>
      <point x="193" y="401" type="curve" smooth="yes"/>
      <point x="184" y="353"/>
      <point x="174" y="325"/>
      <point x="141" y="325" type="curve"/>
      <point x="141" y="280" type="line"/>
      <point x="224" y="284" type="line"/>
    </contour>
  </outline>
</glyph>
<glyph name="el-cy" format="1">
  <advance width="369"/>
  <unicode hex="043B"/>
  <outline>
    <contour>
      <point x="80" y="547" type="line"/>
      <point x="80" y="237"/>
      <point x="80" y="90"/>
      <point x="30" y="90" type="curve" smooth="yes"/>
      <point x="19" y="90"/>
      <point x="6" y="91"/>
      <point x="6" y="91" type="curve"/>
      <point x="6" y="1" type="line"/>
      <point x="6" y="1"/>
      <point x="33" y="-1"/>
      <point x="44" y="-1" type="curve" smooth="yes"/>
      <point x="172" y="-1"/>
      <point x="171" y="179"/>
      <point x="171" y="456" type="curve"/>
      <point x="228" y="456" type="line"/>
      <point x="228" y="0" type="line"/>
      <point x="329" y="0" type="line"/>
      <point x="329" y="547" type="line"/>
    </contour>
  </outline>
</glyph>
<glyph name="em-cy" format="1">
  <advance width="454"/>
  <unicode hex="043C"/>
  <outline>
    <contour>
      <point x="249" y="0" type="line"/>
      <point x="309" y="340" type="line"/>
      <point x="316" y="378" type="line"/>
      <point x="320" y="378" type="line"/>
      <point x="319" y="339" type="line"/>
      <point x="319" y="0" type="line"/>
      <point x="414" y="0" type="line"/>
      <point x="414" y="547" type="line"/>
      <point x="293" y="547" type="line"/>
      <point x="236" y="269" type="line"/>
      <point x="229" y="231" type="line"/>
      <point x="225" y="231" type="line"/>
      <point x="218" y="269" type="line"/>
      <point x="161" y="547" type="line"/>
      <point x="40" y="547" type="line"/>
      <point x="40" y="0" type="line"/>
      <point x="135" y="0" type="line"/>
      <point x="135" y="339" type="line"/>
      <point x="134" y="378" type="line"/>
      <point x="138" y="378" type="line"/>
      <point x="145" y="340" type="line"/>
      <point x="205" y="0" type="line"/>
    </contour>
  </outline>
</glyph>
<glyph name="en-cy" format="1">
  <advance width="356"/>
  <unicode hex="043D"/>
  <outline>
    <contour>
      <point x="215" y="547" type="line"/>
      <point x="215" y="329" type="line"/>
      <point x="141" y="329" type="line"/>
      <point x="141" y="547" type="line"/>
      <point x="40" y="547" type="line"/>
      <point x="40" y="0" type="line"/>
      <point x="141" y="0" type="line"/>
      <point x="141" y="238" type="line"/>
      <point x="215" y="238" type="line"/>
      <point x="215" y="0" type="line"/>
      <point x="316" y="0" type="line"/>
      <point x="316" y="547" type="line"/>
    </contour>
  </outline>
</glyph>
<glyph name="pe-cy" format="1">
  <advance width="356"/>
  <unicode hex="043F"/>
  <outline>
    <contour>
      <point x="40" y="547" type="line"/>
      <point x="40" y="0" type="line"/>
      <point x="141" y="0" type="line"/>
      <point x="141" y="456" type="line"/>
      <point x="215" y="456" type="line"/>
      <point x="215" y="0" type="line"/>
      <point x="316" y="0" type="line"/>
      <point x="316" y="547" type="line"/>
    </contour>
  </outline>
</glyph>
<glyph name="te-cy" format="1">
  <advance width="270"/>
  <unicode hex="0442"/>
  <outline>
    <contour>
      <point x="4" y="547" type="line"/>
      <point x="4" y="456" type="line"/>
      <point x="85" y="456" type="line"/>
      <point x="85" y="0" type="line"/>
      <point x="186" y="0" type="line"/>
      <point x="186" y="456" type="line"/>
      <point x="266" y="456" type="line"/>
      <point x="266" y="547" type="line"/>
    </contour>
  </outline>
</glyph>
<glyph name="ef-cy" format="1">
  <advance width="479"/>
  <unicode hex="0444"/>
  <outline>
    <contour>
      <point x="189" y="735" type="line"/>
      <point x="189" y="555" type="line"/>
      <point x="30" y="555"/>
      <point x="31" y="411"/>
      <point x="31" y="411" type="curve"/>
      <point x="31" y="136" type="line"/>
      <point x="31" y="136"/>
      <point x="30" y="-8"/>
      <point x="189" y="-8" type="curve"/>
      <point x="189" y="-188" type="line"/>
      <point x="290" y="-188" type="line"/>
      <point x="290" y="-8" type="line"/>
      <point x="449" y="-8"/>
      <point x="448" y="133"/>
      <point x="448" y="133" type="curve"/>
      <point x="448" y="414" type="line"/>
      <point x="448" y="414"/>
      <point x="449" y="555"/>
      <point x="290" y="555" type="curve"/>
      <point x="290" y="735" type="line"/>
    </contour>
    <contour>
      <point x="189" y="81" type="line"/>
      <point x="123" y="81"/>
      <point x="126" y="136"/>
      <point x="126" y="136" type="curve"/>
      <point x="126" y="411" type="line"/>
      <point x="126" y="411"/>
      <point x="123" y="467"/>
      <point x="189" y="467" type="curve"/>
    </contour>
    <contour>
      <point x="356" y="467"/>
      <point x="353" y="411"/>
      <point x="353" y="411" type="curve"/>
      <point x="353" y="136" type="line"/>
      <point x="353" y="136"/>
      <point x="356" y="81"/>
      <point x="290" y="81" type="curve"/>
      <point x="290" y="467" type="line"/>
    </contour>
  </outline>
</glyph>
<glyph name="tse-cy" format="1">
  <advance width="377"/>
  <unicode hex="0446"/>
  <outline>
    <contour>
      <point x="215" y="547" type="line"/>
      <point x="215" y="91" type="line"/>
      <point x="141" y="91" type="line"/>
      <point x="141" y="547" type="line"/>
      <point x="40" y="547" type="line"/>
      <point x="40" y="0" type="line"/>
      <point x="270" y="0" type="line"/>
      <point x="270" y="-138" type="line"/>
      <point x="371" y="-138" type="line"/>
      <point x="371" y="91" type="line"/>
      <point x="316" y="91" type="line"/>
      <point x="316" y="547" type="line"/>
    </contour>
  </outline>
</glyph>
<glyph name="che-cy" format="1">
  <advance width="337"/>
  <unicode hex="0447"/>
  <outline>
    <contour>
      <point x="145" y="290"/>
      <point x="133" y="293"/>
      <point x="133" y="314" type="curve" smooth="yes"/>
      <point x="133" y="547" type="line"/>
      <point x="32" y="547" type="line"/>
      <point x="32" y="299" type="line" smooth="yes"/>
      <point x="32" y="254"/>
      <point x="54" y="192"/>
      <point x="108" y="192" type="curve" smooth="yes"/>
      <point x="143" y="192"/>
      <point x="192" y="211"/>
      <point x="200" y="216" type="curve"/>
      <point x="200" y="0" type="line"/>
      <point x="301" y="0" type="line"/>
      <point x="301" y="547" type="line"/>
      <point x="200" y="547" type="line"/>
      <point x="200" y="303" type="line"/>
      <point x="200" y="303"/>
      <point x="177" y="290"/>
      <point x="157" y="290" type="curve" smooth="yes"/>
    </contour>
  </outline>
</glyph>
<glyph name="sha-cy" format="1">
  <advance width="513"/>
  <unicode hex="0448"/>
  <outline>
    <contour>
      <point x="372" y="547" type="line"/>
      <point x="372" y="91" type="line"/>
      <point x="307" y="91" type="line"/>
      <point x="307" y="547" type="line"/>
      <point x="206" y="547" type="line"/>
      <point x="206" y="91" type="line"/>
      <point x="141" y="91" type="line"/>
      <point x="141" y="547" type="line"/>
      <point x="40" y="547" type="line"/>
      <point x="40" y="0" type="line"/>
      <point x="473" y="0" type="line"/>
      <point x="473" y="547" type="line"/>
    </contour>
  </outline>
</glyph>
<glyph name="shcha-cy" format="1">
  <advance width="534"/>
  <unicode hex="0449"/>
  <outline>
    <contour>
      <point x="372" y="547" type="line"/>
      <point x="372" y="91" type="line"/>
      <point x="307" y="91" type="line"/>
      <point x="307" y="547" type="line"/>
      <point x="206" y="547" type="line"/>
      <point x="206" y="91" type="line"/>
      <point x="141" y="91" type="line"/>
      <point x="141" y="547" type="line"/>
      <point x="40" y="547" type="line"/>
      <point x="40" y="0" type="line"/>
      <point x="427" y="0" type="line"/>
      <point x="427" y="-138" type="line"/>
      <point x="528" y="-138" type="line"/>
      <point x="528" y="91" type="line"/>
      <point x="473" y="91" type="line"/>
      <point x="473" y="547" type="line"/>
    </contour>
  </outline>
</glyph>
<glyph name="hardsign-cy" format="1">
  <advance width="378"/>
  <unicode hex="044A"/>
  <outline>
    <contour>
      <point x="2" y="547" type="line"/>
      <point x="2" y="456" type="line"/>
      <point x="83" y="456" type="line"/>
      <point x="83" y="0" type="line"/>
      <point x="207" y="0" type="line" smooth="yes"/>
      <point x="327" y="4"/>
      <point x="362" y="75"/>
      <point x="362" y="167" type="curve" smooth="yes"/>
      <point x="362" y="259"/>
      <point x="327" y="330"/>
      <point x="207" y="334" type="curve" smooth="yes"/>
      <point x="184" y="334" type="line"/>
      <point x="184" y="547" type="line"/>
    </contour>
    <contour>
      <point x="202" y="243"/>
      <point x="258" y="248"/>
      <point x="258" y="167" type="curve" smooth="yes"/>
      <point x="258" y="86"/>
      <point x="202" y="91"/>
      <point x="184" y="91" type="curve"/>
      <point x="184" y="243" type="line"/>
    </contour>
  </outline>
</glyph>
<glyph name="softsign-cy" format="1">
  <advance width="335"/>
  <unicode hex="044C"/>
  <outline>
    <contour>
      <point x="40" y="547" type="line"/>
      <point x="40" y="0" type="line"/>
      <point x="164" y="0" type="line"/>
      <point x="284" y="4"/>
      <point x="319" y="76"/>
      <point x="319" y="169" type="curve" smooth="yes"/>
      <point x="319" y="262"/>
      <point x="284" y="333"/>
      <point x="164" y="337" type="curve" smooth="yes"/>
      <point x="141" y="337" type="line"/>
      <point x="141" y="547" type="line"/>
    </contour>
    <contour>
      <point x="159" y="246"/>
      <point x="215" y="251"/>
      <point x="215" y="169" type="curve"/>
      <point x="215" y="87"/>
      <point x="159" y="92"/>
      <point x="141" y="92" type="curve"/>
      <point x="141" y="246" type="line"/>
    </contour>
  </outline>
</glyph>
<glyph name="iu-cy" format="1">
  <advance width="504"/>
  <unicode hex="044E"/>
  <outline>
    <contour>
      <point x="254" y="329" type="line"/>
      <point x="141" y="329" type="line"/>
      <point x="141" y="547" type="line"/>
      <point x="40" y="547" type="line"/>
      <point x="40" y="0" type="line"/>
      <point x="141" y="0" type="line"/>
      <point x="141" y="238" type="line"/>
      <point x="254" y="238" type="line"/>
    </contour>
    <component base="o-cy" xOffset="183"/>
  </outline>
</glyph>
<glyph name="ia-cy" format="1">
  <advance width="341"/>
  <unicode hex="044F"/>
  <outline>
    <contour>
      <point x="301" y="0" type="line"/>
      <point x="301" y="547" type="line"/>
      <point x="179" y="547" type="line"/>
      <point x="68" y="543"/>
      <point x="36" y="474"/>
      <point x="36" y="392" type="curve" smooth="yes"/>
      <point x="36" y="317"/>
      <point x="80" y="245"/>
      <point x="179" y="245" type="curve" smooth="yes"/>
      <point x="200" y="245" type="line"/>
      <point x="200" y="0" type="line"/>
    </contour>
    <contour>
      <point x="183" y="311"/>
      <point x="132" y="306"/>
      <point x="132" y="385" type="curve"/>
      <point x="132" y="463"/>
      <point x="183" y="459"/>
      <point x="200" y="459" type="curve"/>
      <point x="200" y="311" type="line"/>
    </contour>
    <contour>
      <point x="67" y="241"/>
      <point x="61" y="198"/>
      <point x="52" y="160" type="curve" smooth="yes"/>
      <point x="14" y="0" type="line"/>
      <point x="112" y="0" type="line"/>
      <point x="143" y="149" type="line" smooth="yes"/>
      <point x="152" y="194"/>
      <point x="159" y="222"/>
      <point x="200" y="222" type="curve"/>
      <point x="200" y="265" type="line"/>
      <point x="116" y="265" type="line"/>
    </contour>
  </outline>
</glyph>
<glyph name="dje-cy" format="1">
  <advance width="368"/>
  <unicode hex="0452"/>
  <outline>
    <contour>
      <point x="61" y="682" type="line"/>
      <point x="61" y="547" type="line"/>
      <point x="10" y="547" type="line"/>
      <point x="10" y="456" type="line"/>
      <point x="61" y="456" type="line"/>
      <point x="61" y="0" type="line"/>
      <point x="162" y="0" type="line"/>
      <point x="162" y="244" type="line"/>
      <point x="162" y="244"/>
      <point x="185" y="257"/>
      <point x="205" y="257" type="curve" smooth="yes"/>
      <point x="217" y="257"/>
      <point x="229" y="254"/>
      <point x="229" y="233" type="curve" smooth="yes"/>
      <point x="229" y="-13" type="line" smooth="yes"/>
      <point x="229" y="-38"/>
      <point x="232" y="-93"/>
      <point x="198" y="-93" type="curve" smooth="yes"/>
      <point x="184" y="-93"/>
      <point x="170" y="-89"/>
      <point x="170" y="-89" type="curve"/>
      <point x="170" y="-182" type="line"/>
      <point x="170" y="-182"/>
      <point x="182" y="-188"/>
      <point x="214" y="-188" type="curve" smooth="yes"/>
      <point x="330" y="-188"/>
      <point x="330" y="-71"/>
      <point x="330" y="-14" type="curve" smooth="yes"/>
      <point x="330" y="248" type="line" smooth="yes"/>
      <point x="330" y="293"/>
      <point x="308" y="355"/>
      <point x="254" y="355" type="curve" smooth="yes"/>
      <point x="219" y="355"/>
      <point x="170" y="336"/>
      <point x="162" y="331" type="curve"/>
      <point x="162" y="456" type="line"/>
      <point x="231" y="456" type="line"/>
      <point x="231" y="547" type="line"/>
      <point x="162" y="547" type="line"/>
      <point x="162" y="682" type="line"/>
    </contour>
  </outline>
</glyph>
<glyph name="lje-cy" format="1">
  <advance width="523"/>
  <unicode hex="0459"/>
  <outline>
    <contour>
      <point x="80" y="547" type="line"/>
      <point x="80" y="237"/>
      <point x="80" y="90"/>
      <point x="30" y="90" type="curve" smooth="yes"/>
      <point x="19" y="90"/>
      <point x="6" y="91"/>
      <point x="6" y="91" type="curve"/>
      <point x="6" y="1" type="line"/>
      <point x="6" y="1"/>
      <point x="33" y="-1"/>
      <point x="44" y="-1" type="curve" smooth="yes"/>
      <point x="172" y="-1"/>
      <point x="171" y="179"/>
      <point x="171" y="456" type="curve"/>
      <point x="228" y="456" type="line"/>
      <point x="228" y="0" type="line"/>
      <point x="352" y="0" type="line" smooth="yes"/>
      <point x="472" y="4"/>
      <point x="507" y="75"/>
      <point x="507" y="167" type="curve" smooth="yes"/>
      <point x="507" y="259"/>
      <point x="472" y="330"/>
      <point x="352" y="334" type="curve" smooth="yes"/>
      <point x="329" y="334" type="line"/>
      <point x="329" y="547" type="line"/>
    </contour>
    <contour>
      <point x="347" y="243"/>
      <point x="403" y="248"/>
      <point x="403" y="167" type="curve" smooth="yes"/>
      <point x="403" y="86"/>
      <point x="347" y="91"/>
      <point x="329" y="91" type="curve"/>
      <point x="329" y="243" type="line"/>
    </contour>
  </outline>
</glyph>
<glyph name="nje-cy" format="1">
  <advance width="510"/>
  <unicode hex="045A"/>
  <outline>
    <contour>
      <point x="316" y="334" type="line"/>
      <point x="316" y="547" type="line"/>
      <point x="215" y="547" type="line"/>
      <point x="215" y="334" type="line"/>
      <point x="141" y="334" type="line"/>
      <point x="141" y="547" type="line"/>
      <point x="40" y="547" type="line"/>
      <point x="40" y="0" type="line"/>
      <point x="141" y="0" type="line"/>
      <point x="141" y="243" type="line"/>
      <point x="215" y="243" type="line"/>
      <point x="215" y="0" type="line"/>
      <point x="339" y="0" type="line" smooth="yes"/>
      <point x="459" y="4"/>
      <point x="494" y="75"/>
      <point x="494" y="167" type="curve" smooth="yes"/>
      <point x="494" y="259"/>
      <point x="459" y="330"/>
      <point x="339" y="334" type="curve" smooth="yes"/>
    </contour>
    <contour>
      <point x="316" y="243" type="line"/>
      <point x="334" y="243"/>
      <point x="390" y="248"/>
      <point x="390" y="167" type="curve" smooth="yes"/>
      <point x="390" y="86"/>
      <point x="334" y="91"/>
      <point x="316" y="91" type="curve"/>
    </contour>
  </outline>
</glyph>
<glyph name="tshe-cy" format="1">
  <advance width="368"/>
  <unicode hex="045B"/>
  <outline>
    <contour>
      <point x="61" y="682" type="line"/>
      <point x="61" y="547" type="line"/>
      <point x="10" y="547" type="line"/>
      <point x="10" y="456" type="line"/>
      <point x="61" y="456" type="line"/>
      <point x="61" y="0" type="line"/>
      <point x="162" y="0" type="line"/>
      <point x="162" y="244" type="line"/>
      <point x="162" y="244"/>
      <point x="185" y="257"/>
      <point x="205" y="257" type="curve" smooth="yes"/>
      <point x="217" y="257"/>
      <point x="229" y="254"/>
      <point x="229" y="233" type="curve" smooth="yes"/>
      <point x="229" y="0" type="line"/>
      <point x="330" y="0" type="line"/>
      <point x="330" y="248" type="line" smooth="yes"/>
      <point x="330" y="293"/>
      <point x="308" y="355"/>
      <point x="254" y="355" type="curve" smooth="yes"/>
      <point x="219" y="355"/>
      <point x="170" y="336"/>
      <point x="162" y="331" type="curve"/>
      <point x="162" y="456" type="line"/>
      <point x="231" y="456" type="line"/>
      <point x="231" y="547" type="line"/>
      <point x="162" y="547" type="line"/>
      <point x="162" y="682" type="line"/>
    </contour>
  </outline>
</glyph>
<glyph name="dzhe-cy" format="1">
  <advance width="356"/>
  <unicode hex="045F"/>
  <outline>
    <contour>
      <point x="215" y="547" type="line"/>
      <point x="215" y="91" type="line"/>
      <point x="141" y="91" type="line"/>
      <point x="141" y="547" type="line"/>
      <point x="40" y="547" type="line"/>
      <point x="40" y="0" type="line"/>
      <point x="128" y="0" type="line"/>
      <point x="128" y="-138" type="line"/>
      <point x="229" y="-138" type="line"/>
      <point x="229" y="0" type="line"/>
      <point x="316" y="0" type="line"/>
      <point x="316" y="547" type="line"/>
    </contour>
  </outline>
</glyph>
<glyph name="Yat-cy" format="1">
  <advance width="420"/>
  <unicode hex="0462"/>
  <outline>
    <contour>
      <point x="212" y="440" type="line"/>
      <point x="212" y="735" type="line"/>
      <point x="104" y="735" type="line"/>
      <point x="104" y="0" type="line"/>
      <point x="237" y="0" type="line"/>
      <point x="366" y="5"/>
      <point x="404" y="99"/>
      <point x="404" y="220" type="curve" smooth="yes"/>
      <point x="404" y="341"/>
      <point x="366" y="435"/>
      <point x="237" y="440" type="curve"/>
    </contour>
    <contour>
      <point x="212" y="333" type="line"/>
      <point x="232" y="333"/>
      <point x="292" y="341"/>
      <point x="292" y="220" type="curve" smooth="yes"/>
      <point x="292" y="99"/>
      <point x="232" y="107"/>
      <point x="212" y="107" type="curve"/>
    </contour>
    <contour>
      <point x="314" y="548" type="line"/>
      <point x="314" y="659" type="line"/>
      <point x="2" y="659" type="line"/>
      <point x="2" y="548" type="line"/>
    </contour>
  </outline>
</glyph>
<glyph name="yat-cy" format="1">
  <advance width="356"/>
  <unicode hex="0463"/>
  <outline>
    <contour>
      <point x="61" y="682" type="line"/>
      <point x="61" y="547" type="line"/>
      <point x="10" y="547" type="line"/>
      <point x="10" y="456" type="line"/>
      <point x="61" y="456" type="line"/>
      <point x="61" y="0" type="line"/>
      <point x="185" y="0" type="line" smooth="yes"/>
      <point x="305" y="4"/>
      <point x="340" y="75"/>
      <point x="340" y="167" type="curve" smooth="yes"/>
      <point x="340" y="259"/>
      <point x="305" y="330"/>
      <point x="185" y="334" type="curve" smooth="yes"/>
      <point x="162" y="334" type="line"/>
      <point x="162" y="456" type="line"/>
      <point x="231" y="456" type="line"/>
      <point x="231" y="547" type="line"/>
      <point x="162" y="547" type="line"/>
      <point x="162" y="682" type="line"/>
    </contour>
    <contour>
      <point x="180" y="243"/>
      <point x="236" y="248"/>
      <point x="236" y="167" type="curve" smooth="yes"/>
      <point x="236" y="86"/>
      <point x="180" y="91"/>
      <point x="162" y="91" type="curve"/>
      <point x="162" y="243" type="line"/>
    </contour>
  </outline>
</glyph>
<glyph name="Fita-cy" format="1">
  <advance width="354"/>
  <unicode hex="0472"/>
  <outline>
    <contour>
      <point x="32" y="743"/>
      <point x="33" y="584"/>
      <point x="33" y="584" type="curve"/>
      <point x="33" y="151" type="line"/>
      <point x="33" y="151"/>
      <point x="32" y="-8"/>
      <point x="177" y="-8" type="curve" smooth="yes"/>
      <point x="322" y="-8"/>
      <point x="321" y="151"/>
      <point x="321" y="151" type="curve"/>
      <point x="321" y="584" type="line"/>
      <point x="321" y="584"/>
      <point x="322" y="743"/>
      <point x="177" y="743" type="curve" smooth="yes"/>
    </contour>
    <contour>
      <point x="170" y="326"/>
      <point x="181" y="314"/>
      <point x="194" y="314" type="curve" smooth="yes"/>
      <point x="206" y="314"/>
      <point x="213" y="320"/>
      <point x="213" y="320" type="curve"/>
      <point x="213" y="151" type="line"/>
      <point x="213" y="151"/>
      <point x="215" y="97"/>
      <point x="177" y="97" type="curve" smooth="yes"/>
      <point x="139" y="97"/>
      <point x="141" y="151"/>
      <point x="141" y="151" type="curve"/>
      <point x="141" y="320" type="line"/>
      <point x="141" y="320"/>
      <point x="145" y="326"/>
      <point x="157" y="326" type="curve" smooth="yes"/>
    </contour>
    <contour>
      <point x="215" y="638"/>
      <point x="213" y="584"/>
      <point x="213" y="584" type="curve"/>
      <point x="213" y="431" type="line"/>
      <point x="213" y="431"/>
      <point x="209" y="425"/>
      <point x="197" y="425" type="curve" smooth="yes"/>
      <point x="184" y="425"/>
      <point x="173" y="437"/>
      <point x="160" y="437" type="curve" smooth="yes"/>
      <point x="148" y="437"/>
      <point x="141" y="431"/>
      <point x="141" y="431" type="curve"/>
      <point x="141" y="584" type="line"/>
      <point x="141" y="584"/>
      <point x="139" y="638"/>
      <point x="177" y="638" type="curve" smooth="yes"/>
    </contour>
  </outline>
</glyph>
<glyph name="fita-cy" format="1">
  <advance width="321"/>
  <unicode hex="0473"/>
  <outline>
    <contour>
      <point x="30" y="555"/>
      <point x="31" y="411"/>
      <point x="31" y="411" type="curve"/>
      <point x="31" y="136" type="line"/>
      <point x="31" y="136"/>
      <point x="30" y="-8"/>
      <point x="160" y="-8" type="curve" smooth="yes"/>
      <point x="291" y="-8"/>
      <point x="290" y="133"/>
      <point x="290" y="133" type="curve"/>
      <point x="290" y="414" type="line"/>
      <point x="290" y="414"/>
      <point x="291" y="555"/>
      <point x="160" y="555" type="curve" smooth="yes"/>
    </contour>
    <contour>
      <point x="154" y="244"/>
      <point x="164" y="232"/>
      <point x="177" y="232" type="curve" smooth="yes"/>
      <point x="189" y="232"/>
      <point x="195" y="238"/>
      <point x="195" y="238" type="curve"/>
      <point x="195" y="136" type="line"/>
      <point x="195" y="136"/>
      <point x="198" y="81"/>
      <point x="160" y="81" type="curve" smooth="yes"/>
      <point x="123" y="81"/>
      <point x="126" y="136"/>
      <point x="126" y="136" type="curve"/>
      <point x="126" y="238" type="line"/>
      <point x="126" y="238"/>
      <point x="129" y="244"/>
      <point x="141" y="244" type="curve" smooth="yes"/>
    </contour>
    <contour>
      <point x="198" y="467"/>
      <point x="195" y="411"/>
      <point x="195" y="411" type="curve"/>
      <point x="195" y="329" type="line"/>
      <point x="195" y="329"/>
      <point x="192" y="323"/>
      <point x="180" y="323" type="curve" smooth="yes"/>
      <point x="167" y="323"/>
      <point x="157" y="335"/>
      <point x="144" y="335" type="curve" smooth="yes"/>
      <point x="132" y="335"/>
      <point x="126" y="329"/>
      <point x="126" y="329" type="curve"/>
      <point x="126" y="411" type="line"/>
      <point x="126" y="411"/>
      <point x="123" y="467"/>
      <point x="160" y="467" type="curve" smooth="yes"/>
    </contour>
  </outline>
</glyph>
<glyph name="Izhitsa-cy" format="1">
  <advance width="368"/>
  <unicode hex="0474"/>
  <outline>
    <contour>
      <point x="182" y="331" type="line"/>
      <point x="178" y="300" type="line"/>
      <point x="172" y="300" type="line"/>
      <point x="168" y="331" type="line"/>
      <point x="114" y="735" type="line"/>
      <point x="9" y="735" type="line"/>
      <point x="121" y="0" type="line"/>
      <point x="229" y="0" type="line"/>
      <point x="308" y="519" type="line"/>
      <point x="209" y="536" type="line"/>
    </contour>
    <contour>
      <point x="308" y="519" type="line"/>
      <point x="319" y="582"/>
      <point x="325" y="626"/>
      <point x="362" y="630" type="curve"/>
      <point x="362" y="739" type="line"/>
      <point x="252" y="745"/>
      <point x="229" y="680"/>
      <point x="209" y="536" type="curve"/>
    </contour>
  </outline>
</glyph>
<glyph name="izhitsa-cy" format="1">
  <advance width="309"/>
  <unicode hex="0475"/>
  <outline>
    <contour>
      <point x="155" y="230" type="line"/>
      <point x="151" y="195" type="line"/>
      <point x="143" y="195" type="line"/>
      <point x="139" y="230" type="line"/>
      <point x="106" y="547" type="line"/>
      <point x="8" y="547" type="line"/>
      <point x="97" y="0" type="line"/>
      <point x="197" y="0" type="line"/>
      <point x="259" y="387" type="line" smooth="yes"/>
      <point x="265" y="426"/>
      <point x="268" y="458"/>
      <point x="303" y="461" type="curve"/>
      <point x="303" y="550" type="line"/>
      <point x="200" y="555"/>
      <point x="186" y="509"/>
      <point x="174" y="401" type="curve" smooth="yes"/>
    </contour>
  </outline>
</glyph>
<glyph name="Gheupturn-cy" format="1">
  <advance width="299"/>
  <unicode hex="0490"/>
  <outline>
    <contour>
      <point x="189" y="829" type="line"/>
      <point x="189" y="735" type="line"/>
      <point x="40" y="735" type="line"/>
      <point x="40" y="0" type="line"/>
      <point x="148" y="0" type="line"/>
      <point x="148" y="624" type="line"/>
      <point x="297" y="624" type="line"/>
      <point x="297" y="829" type="line"/>
    </contour>
  </outline>
</glyph>
<glyph name="gheupturn-cy" format="1">
  <advance width="263"/>
  <unicode hex="0491"/>
  <outline>
    <contour>
      <point x="156" y="630" type="line"/>
      <point x="156" y="547" type="line"/>
      <point x="40" y="547" type="line"/>
      <point x="40" y="0" type="line"/>
      <point x="141" y="0" type="line"/>
      <point x="141" y="456" type="line"/>
      <point x="257" y="456" type="line"/>
      <point x="257" y="630" type="line"/>
    </contour>
  </outline>
</glyph>
<glyph name="Ghestroke-cy" format="1">
  <advance width="311"/>
  <unicode hex="0492"/>
  <outline>
    <contour>
      <point x="2" y="431" type="line"/>
      <point x="2" y="320" type="line"/>
      <point x="229" y="320" type="line"/>
      <point x="229" y="431" type="line"/>
    </contour>
    <component base="Ge-cy" xOffset="12"/>
  </outline>
</glyph>
<glyph name="ghestroke-cy" format="1">
  <advance width="281"/>
  <unicode hex="0493"/>
  <outline>
    <contour>
      <point x="10" y="329" type="line"/>
      <point x="10" y="238" type="line"/>
      <point x="231" y="238" type="line"/>
      <point x="231" y="329" type="line"/>
    </contour>
    <component base="ge-cy" xOffset="20"/>
  </outline>
</glyph>
<glyph name="Zhedescender-cy" format="1">
  <advance width="592"/>
  <unicode hex="0496"/>
  <outline>
    <contour>
      <point x="481" y="111" type="line"/>
      <point x="481" y="-185" type="line"/>
      <point x="586" y="-185" type="line"/>
      <point x="586" y="111" type="line"/>
    </contour>
    <component base="Zhe-cy"/>
  </outline>
</glyph>
<glyph name="zhedescender-cy" format="1">
  <advance width="542"/>
  <unicode hex="0497"/>
  <outline>
    <contour>
      <point x="438" y="91" type="line"/>
      <point x="438" y="-138" type="line"/>
      <point x="536" y="-138" type="line"/>
      <point x="536" y="91" type="line"/>
    </contour>
    <component base="zhe-cy"/>
  </outline>
</glyph>
<glyph name="Kadescender-cy" format="1">
  <advance width="400"/>
  <unicode hex="049A"/>
  <outline>
    <contour>
      <point x="289" y="111" type="line"/>
      <point x="289" y="-185" type="line"/>
      <point x="394" y="-185" type="line"/>
      <point x="394" y="111" type="line"/>
    </contour>
    <component base="Ka-cy"/>
  </outline>
</glyph>
<glyph name="kadescender-cy" format="1">
  <advance width="373"/>
  <unicode hex="049B"/>
  <outline>
    <contour>
      <point x="269" y="91" type="line"/>
      <point x="269" y="-138" type="line"/>
      <point x="367" y="-138" type="line"/>
      <point x="367" y="91" type="line"/>
    </contour>
    <component base="ka-cy"/>
  </outline>
</glyph>
<glyph name="Endescender-cy" format="1">
  <advance width="406"/>
  <unicode hex="04A2"/>
  <outline>
    <contour>
      <point x="292" y="111" type="line"/>
      <point x="292" y="-185" type="line"/>
      <point x="400" y="-185" type="line"/>
      <point x="400" y="111" type="line"/>
    </contour>
    <component base="En-cy"/>
  </outline>
</glyph>
<glyph name="endescender-cy" format="1">
  <advance width="377"/>
  <unicode hex="04A3"/>
  <outline>
    <contour>
      <point x="270" y="91" type="line"/>
      <point x="270" y="-138" type="line"/>
      <point x="371" y="-138" type="line"/>
      <point x="371" y="91" type="line"/>
    </contour>
    <component base="en-cy"/>
  </outline>
</glyph>
<glyph name="ustrait-cy" format="1">
  <advance width="310"/>
  <unicode hex="04AF"/>
  <outline>
    <contour>
      <point x="199" y="547" type="line"/>
      <point x="159" y="211" type="line"/>
      <point x="157" y="183" type="line"/>
      <point x="153" y="183" type="line"/>
      <point x="151" y="211" type="line"/>
      <point x="111" y="547" type="line"/>
      <point x="12" y="547" type="line"/>
      <point x="104" y="-10" type="line"/>
      <point x="104" y="-188" type="line"/>
      <point x="205" y="-188" type="line"/>
      <point x="205" y="-10" type="line"/>
      <point x="298" y="547" type="line"/>
    </contour>
  </outline>
</glyph>
<glyph name="Ustraitstroke-cy" format="1">
  <advance width="342"/>
  <unicode hex="04B0"/>
  <outline>
    <contour>
      <point x="14" y="331" type="line"/>
      <point x="14" y="220" type="line"/>
      <point x="326" y="220" type="line"/>
      <point x="326" y="331" type="line"/>
    </contour>
    <component base="Ustrait-cy"/>
  </outline>
</glyph>
<glyph name="ustraitstroke-cy" format="1">
  <advance width="310"/>
  <unicode hex="04B1"/>
  <outline>
    <contour>
      <point x="23" y="0" type="line"/>
      <point x="23" y="-91" type="line"/>
      <point x="285" y="-91" type="line"/>
      <point x="285" y="0" type="line"/>
    </contour>
    <component base="ustrait-cy"/>
  </outline>
</glyph>
<glyph name="Hadesender-cy" format="1">
  <advance width="396"/>
  <unicode hex="04B2"/>
  <outline>
    <contour>
      <point x="285" y="111" type="line"/>
      <point x="285" y="-185" type="line"/>
      <point x="390" y="-185" type="line"/>
      <point x="390" y="111" type="line"/>
    </contour>
    <component base="Ha-cy"/>
  </outline>
</glyph>
<glyph name="hadesender-cy" format="1">
  <advance width="333"/>
  <unicode hex="04B3"/>
  <outline>
    <contour>
      <point x="229" y="91" type="line"/>
      <point x="229" y="-138" type="line"/>
      <point x="327" y="-138" type="line"/>
      <point x="327" y="91" type="line"/>
    </contour>
    <component base="ha-cy"/>
  </outline>
</glyph>
<glyph name="Chedesender-cy" format="1">
  <advance width="396"/>
  <unicode hex="04B6"/>
  <outline>
    <contour>
      <point x="282" y="111" type="line"/>
      <point x="282" y="-185" type="line"/>
      <point x="390" y="-185" type="line"/>
      <point x="390" y="111" type="line"/>
    </contour>
    <component base="Che-cy"/>
  </outline>
</glyph>
<glyph name="chedesender-cy" format="1">
  <advance width="362"/>
  <unicode hex="04B7"/>
  <outline>
    <contour>
      <point x="255" y="91" type="line"/>
      <point x="255" y="-138" type="line"/>
      <point x="356" y="-138" type="line"/>
      <point x="356" y="91" type="line"/>
    </contour>
    <component base="che-cy"/>
  </outline>
</glyph>
<glyph name="Obarred-cy" format="1">
  <advance width="354"/>
  <unicode hex="04E8"/>
  <outline>
    <contour>
      <point x="101" y="431" type="line"/>
      <point x="101" y="320" type="line"/>
      <point x="253" y="320" type="line"/>
      <point x="253" y="431" type="line"/>
    </contour>
    <component base="O-cy"/>
  </outline>
</glyph>
<glyph name="obarred-cy" format="1">
  <advance width="321"/>
  <unicode hex="04E9"/>
  <outline>
    <contour>
      <point x="86" y="329" type="line"/>
      <point x="86" y="238" type="line"/>
      <point x="235" y="238" type="line"/>
      <point x="235" y="329" type="line"/>
    </contour>
    <component base="o"/>
  </outline>
</glyph>
